<svg preserveAspectRatio="none" width="100%" height="100%" overflow="visible" style="display: block;" viewBox="0 0 75 22" fill="none" xmlns="http://www.w3.org/2000/svg">
<g id="logo_white" clip-path="url(#clip0_0_398)">
<g id="averis">
<path d="M10.9922 14.5139V12.5278H14.1742V16.5611C14.1742 17.213 14.3477 17.7222 14.6949 18.0889C15.0613 18.4556 15.5627 18.6389 16.1991 18.6389V22C15.312 22 14.502 21.8167 13.7692 21.45C13.0557 21.0833 12.4771 20.5741 12.0336 19.9222C11.3972 20.5741 10.6547 21.0833 9.80622 21.45C8.97698 21.8167 8.07061 22 7.08709 22C6.10358 22 5.17792 21.8065 4.31011 21.4194C3.4423 21.0324 2.6902 20.5028 2.05381 19.8306C1.41742 19.1583 0.916019 18.3639 0.549611 17.4472C0.183204 16.5306 0 15.5528 0 14.5139C0 13.4546 0.183204 12.4768 0.549611 11.5806C0.916019 10.6639 1.41742 9.86944 2.05381 9.19722C2.6902 8.525 3.4423 7.99537 4.31011 7.60833C5.17792 7.22129 6.10358 7.02778 7.08709 7.02778H14.1742V10.3889H7.08709C6.54712 10.3889 6.03608 10.5009 5.55397 10.725C5.09114 10.9287 4.67652 11.2139 4.31011 11.5806C3.96299 11.9472 3.68336 12.3852 3.47123 12.8944C3.27838 13.3833 3.18196 13.9231 3.18196 14.5139C3.18196 15.0843 3.27838 15.6241 3.47123 16.1333C3.68336 16.6426 3.96299 17.0806 4.31011 17.4472C4.67652 17.8139 5.09114 18.1093 5.55397 18.3333C6.03608 18.537 6.54712 18.6389 7.08709 18.6389C7.64635 18.6389 8.15739 18.537 8.62022 18.3333C9.10233 18.1093 9.51695 17.8139 9.86408 17.4472C10.2112 17.0806 10.4812 16.6426 10.674 16.1333C10.8862 15.6241 10.9922 15.0843 10.9922 14.5139Z" fill="var(--fill-0, white)"/>
<path d="M19.5031 7.02778L23.495 17.1111L27.4869 7.02778H30.9581L24.9124 21.6944H22.0776L16.0318 7.02778H19.5031Z" fill="var(--fill-0, white)"/>
<path d="M31.1021 14.3611C31.1021 13.2611 31.2756 12.2426 31.6228 11.3056C31.9892 10.3685 32.4906 9.56389 33.127 8.89166C33.7633 8.19907 34.5154 7.66944 35.3833 7.30278C36.2703 6.91574 37.2346 6.72222 38.2759 6.72222C39.3173 6.72222 40.2719 6.91574 41.1397 7.30278C42.0268 7.66944 42.7885 8.19907 43.4249 8.89166C44.0613 9.56389 44.5531 10.3685 44.9002 11.3056C45.2666 12.2426 45.4498 13.2611 45.4498 14.3611C45.4498 14.5037 45.4402 14.6463 45.4209 14.7889C45.4209 14.9111 45.4016 15.0741 45.363 15.2778H34.3419C34.5154 16.3167 34.9397 17.1417 35.6147 17.7528C36.3089 18.3435 37.196 18.6389 38.2759 18.6389C39.0088 18.6389 39.6548 18.4963 40.214 18.2111C40.7926 17.9259 41.2554 17.5083 41.6025 16.9583H45.0738C44.8424 17.7324 44.5145 18.4352 44.0903 19.0667C43.666 19.6778 43.1549 20.2074 42.5571 20.6555C41.9786 21.0833 41.3229 21.4194 40.5901 21.6639C39.8766 21.888 39.1052 22 38.2759 22C37.2346 22 36.2703 21.8167 35.3833 21.45C34.5154 21.063 33.7633 20.5333 33.127 19.8611C32.4906 19.1889 31.9892 18.3843 31.6228 17.4472C31.2756 16.5102 31.1021 15.4815 31.1021 14.3611ZM42.0654 12.8333C41.7954 11.9778 41.3326 11.3056 40.6769 10.8167C40.0212 10.3278 39.2209 10.0833 38.2759 10.0833C37.3117 10.0833 36.5018 10.3278 35.8461 10.8167C35.1904 11.3056 34.7372 11.9778 34.4865 12.8333H42.0654Z" fill="var(--fill-0, white)"/>
<path d="M54.2628 10.0833C53.2407 10.0833 52.4308 10.3787 51.8329 10.9694C51.2351 11.5602 50.9362 12.3648 50.9362 13.3833V21.6944H47.7542V13.5056C47.7542 12.4667 47.9085 11.5296 48.2171 10.6944C48.5256 9.85926 48.9595 9.14629 49.5188 8.55555C50.0973 7.96481 50.7819 7.51667 51.5726 7.21111C52.3826 6.88518 53.2793 6.72222 54.2628 6.72222V10.0833Z" fill="var(--fill-0, white)"/>
<path d="M57.8764 0C58.4549 0 58.9371 0.203703 59.3228 0.61111C59.7084 1.01852 59.9013 1.52778 59.9013 2.13889C59.9013 2.75 59.7084 3.25926 59.3228 3.66667C58.9371 4.07407 58.4549 4.27778 57.8764 4.27778C57.2979 4.27778 56.8158 4.07407 56.4301 3.66667C56.0444 3.25926 55.8515 2.75 55.8515 2.13889C55.8515 1.52778 56.0444 1.01852 56.4301 0.61111C56.8158 0.203703 57.2979 0 57.8764 0ZM56.2854 7.02778H59.4674V21.6944H56.2854V7.02778Z" fill="var(--fill-0, white)"/>
<path d="M74.1033 12.375H70.9213C70.9213 11.6417 70.6417 11.0509 70.0824 10.6028C69.5232 10.1546 68.7807 9.93055 67.8551 9.93055C67.103 9.93055 66.4762 10.1037 65.9748 10.45C65.4927 10.7759 65.2516 11.1935 65.2516 11.7028C65.2516 12.212 65.4927 12.6602 65.9748 13.0472C66.4569 13.4139 67.0547 13.7806 67.7683 14.1472C68.5011 14.5139 69.2821 14.9009 70.1114 15.3083C70.9599 15.7157 71.7409 16.2046 72.4544 16.775C73.1873 17.3454 73.7947 18.0278 74.2768 18.8222C74.7589 19.6167 75 20.5741 75 21.6944H71.8181C71.8181 20.9407 71.577 20.3194 71.0949 19.8306C70.6128 19.3213 70.0053 18.863 69.2725 18.4556C68.5589 18.0481 67.7779 17.6611 66.9294 17.2944C66.1002 16.9074 65.3191 16.4694 64.5863 15.9806C63.8728 15.4917 63.275 14.9111 62.7929 14.2389C62.3107 13.5463 62.0697 12.7009 62.0697 11.7028C62.0697 10.9898 62.2143 10.3278 62.5036 9.71666C62.8121 9.10555 63.2268 8.57592 63.7474 8.12778C64.2874 7.67963 64.9142 7.33333 65.6277 7.08889C66.3605 6.84444 67.1608 6.72222 68.0286 6.72222C68.935 6.72222 69.7546 6.86481 70.4874 7.15C71.2395 7.41481 71.8759 7.80185 72.3966 8.31111C72.9366 8.8 73.3512 9.39074 73.6404 10.0833C73.949 10.7759 74.1033 11.5398 74.1033 12.375Z" fill="var(--fill-0, white)"/>
</g>
<path id="averis_2" d="M65.5409 18.3333C65.1552 17.9259 64.673 17.7222 64.0945 17.7222C63.516 17.7222 63.0339 17.9259 62.6482 18.3333C62.2625 18.7407 62.0696 19.25 62.0696 19.8611C62.0696 20.4722 62.2625 20.9815 62.6482 21.3889C63.0339 21.7963 63.516 22 64.0945 22C64.673 22 65.1552 21.7963 65.5409 21.3889C65.9265 20.9815 66.1194 20.4722 66.1194 19.8611C66.1194 19.25 65.9265 18.7407 65.5409 18.3333Z" fill="var(--fill-0, #3DA8FF)"/>
</g>
<defs>
<clipPath id="clip0_0_398">
<rect width="75" height="22" fill="white"/>
</clipPath>
</defs>
</svg>
