<svg width="310" height="310" viewBox="0 0 310 310" fill="none" xmlns="http://www.w3.org/2000/svg">
<rect width="310" height="310" rx="155" fill="#0A0D1A"/>
<g clip-path="url(#clip0_68_194)">
<path d="M163.511 162.706V144.83H193.765V181.133C193.765 187 195.415 191.583 198.715 194.884C202.199 198.184 206.966 199.834 213.017 199.834V230.086C204.583 230.086 196.882 228.436 189.914 225.136C183.13 221.836 177.63 217.252 173.412 211.385C167.362 217.252 160.303 221.836 152.235 225.136C144.351 228.436 135.733 230.086 126.382 230.086C117.031 230.086 108.23 228.345 99.9795 224.861C91.7286 221.377 84.5778 216.61 78.5271 210.56C72.4765 204.509 67.7093 197.359 64.2256 189.108C60.7419 180.858 59 172.057 59 162.706C59 153.172 60.7419 144.372 64.2256 136.304C67.7093 128.054 72.4765 120.903 78.5271 114.853C84.5778 108.802 91.7286 104.035 99.9795 100.552C108.23 97.0682 117.031 95.3264 126.382 95.3264H193.765V125.579H126.382C121.248 125.579 116.39 126.587 111.806 128.604C107.405 130.437 103.463 133.004 99.9795 136.304C96.6791 139.605 94.0205 143.547 92.0036 148.13C90.1701 152.531 89.2533 157.389 89.2533 162.706C89.2533 167.84 90.1701 172.699 92.0036 177.282C94.0205 181.866 96.6791 185.808 99.9795 189.108C103.463 192.409 107.405 195.067 111.806 197.084C116.39 198.917 121.248 199.834 126.382 199.834C131.7 199.834 136.558 198.917 140.959 197.084C145.543 195.067 149.485 192.409 152.785 189.108C156.086 185.808 158.653 181.866 160.486 177.282C162.503 172.699 163.511 167.84 163.511 162.706Z" fill="white"/>
</g>
<path d="M246.524 100.525C242.857 96.8578 238.273 95.0243 232.772 95.0243C227.272 95.0243 222.688 96.8578 219.021 100.525C215.354 104.192 213.52 108.775 213.52 114.276C213.52 119.776 215.354 124.36 219.021 128.027C222.688 131.694 227.272 133.527 232.772 133.527C238.273 133.527 242.857 131.694 246.524 128.027C250.191 124.36 252.024 119.776 252.024 114.276C252.024 108.775 250.191 104.192 246.524 100.525Z" fill="#3DA8FF"/>
<defs>
<clipPath id="clip0_68_194">
<rect width="154.52" height="151.086" fill="white" transform="translate(59 79)"/>
</clipPath>
</defs>
</svg>
